<?xml version="1.0" encoding="UTF-8" standalone="no"?>
<svg
   xmlns:dc="http://purl.org/dc/elements/1.1/"
   xmlns:cc="http://creativecommons.org/ns#"
   xmlns:rdf="http://www.w3.org/1999/02/22-rdf-syntax-ns#"
   xmlns:svg="http://www.w3.org/2000/svg"
   xmlns="http://www.w3.org/2000/svg"
   xmlns:xlink="http://www.w3.org/1999/xlink"
   xmlns:sodipodi="http://sodipodi.sourceforge.net/DTD/sodipodi-0.dtd"
   xmlns:inkscape="http://www.inkscape.org/namespaces/inkscape"
   id="svg-badge"
   height="168"
   width="564"
   viewBox="0 0 564 168"
   version="1.1"
   sodipodi:docname="Untitled.svg"
   inkscape:version="1.0.1 (3bc2e813f5, 2020-09-07)">
  <metadata
     id="metadata27">
    <rdf:RDF>
      <cc:Work
         rdf:about="">
        <dc:format>image/svg+xml</dc:format>
        <dc:type
           rdf:resource="http://purl.org/dc/dcmitype/StillImage" />
      </cc:Work>
    </rdf:RDF>
  </metadata>
  <sodipodi:namedview
     pagecolor="#ffffff"
     bordercolor="#666666"
     borderopacity="1"
     objecttolerance="10"
     gridtolerance="10"
     guidetolerance="10"
     inkscape:pageopacity="0"
     inkscape:pageshadow="2"
     inkscape:window-width="1614"
     inkscape:window-height="854"
     id="namedview25"
     showgrid="false"
     inkscape:zoom="1.9255319"
     inkscape:cx="282"
     inkscape:cy="84"
     inkscape:window-x="14"
     inkscape:window-y="12"
     inkscape:window-maximized="0"
     inkscape:current-layer="svg-badge" />
  <defs
     id="defs10">
    <rect
       x="190.59669"
       y="133.46961"
       width="297.06077"
       height="29.082873"
       id="rect31" />
    <linearGradient
       xlink:href="#a"
       id="b"
       gradientUnits="userSpaceOnUse"
       x1="42519.285"
       y1="-7078.789"
       x2="42575.336"
       y2="-6966.931" />
    <linearGradient
       id="a">
      <stop
         offset="0"
         stop-color="#fff"
         stop-opacity="0"
         id="stop3" />
      <stop
         offset=".495"
         stop-color="#71c2ff"
         id="stop5" />
      <stop
         offset="1"
         stop-color="#39aaff"
         id="stop7" />
    </linearGradient>
  </defs>
  <rect
     id="rect"
     ry="15.111"
     y="2"
     x="2"
     height="164"
     width="560"
     fill="none"
     stroke="#a6a6a6"
     stroke-width="4"
     stroke-linejoin="round"
     paint-order="fill stroke markers"
     style="color: rgb(255, 255, 255); fill: rgb(255, 255, 255);" />
  <text
     style="line-height:0%;-inkscape-font-specification:Inter;marker:none"
     x="184.13202"
     y="39.111946"
     transform="scale(1.0086975,0.9913775)"
     color="#000000"
     font-weight="400"
     font-size="11.814px"
     font-family="Inter, 'DejaVu Sans', sans-serif"
     letter-spacing="0"
     word-spacing="0"
     overflow="visible"
     fill="#2185d0"
     stroke-width="0.985002"
     id="text14"><tspan
       id="claim-svg"
       style="line-height:1;-inkscape-font-specification:Inter;stroke-width:0.985005"
       x="184.13202"
       y="39.111946"
       font-size="33.5961px">I AM ON</tspan></text>
  <path
     aria-label="Codeberg"
     d="m 214.654,51.02 c -8.453,0 -15.047,2.79 -19.803,8.369 -4.803,5.577 -7.215,12.943 -7.215,22.096 0,7.034 1.764,13.158 5.281,18.372 4.862,7.275 12.274,10.912 22.2,10.912 6.907,0 12.922,-2.516 18.049,-7.548 l -4.718,-7.185 c -4.57,2.85 -8.512,4.275 -11.844,4.275 -5.069,0 -9.112,-1.91 -12.12,-5.729 -2.847,-3.638 -4.271,-8.004 -4.271,-13.097 0,-5.76 1.211,-10.428 3.613,-14.005 2.773,-4.183 6.694,-6.274 11.747,-6.274 3.65,0 7.684,1.574 12.11,4.728 l 4.734,-7.546 c -5.925,-4.91 -11.844,-7.368 -17.763,-7.368 z m 167.7,0 -11.657,6.456 v 52.201 h 9.441 l 0.925,-4.091 c 2.843,3.455 6.844,5.183 12.03,5.183 5.238,0 9.638,-1.548 13.224,-4.64 4.56,-4.061 6.85,-10.033 6.85,-17.914 0,-6.122 -1.547,-11.033 -4.634,-14.732 -3.523,-4.184 -8.38,-6.275 -14.612,-6.275 -2.226,0 -4.266,0.418 -6.105,1.274 -2.348,1.09 -4.176,2.607 -5.462,4.546 z m -62.745,0.183 -11.674,6.367 v 13.186 c -2.895,-2.304 -6.471,-3.455 -10.722,-3.455 -4.93,0 -9.16,1.606 -12.667,4.82 -4.692,4.304 -7.056,10.427 -7.056,18.37 0,5.638 1.466,10.247 4.362,13.824 3.454,4.304 8.486,6.456 15.085,6.456 2.343,0 4.622,-0.517 6.838,-1.547 2.232,-1.03 3.83,-2.334 4.825,-3.909 l 1.663,4.364 h 9.346 z m -65.647,16.098 c -6.057,0 -10.956,1.878 -14.718,5.636 -4.139,4.123 -6.206,9.52 -6.206,16.188 0,5.88 1.855,10.854 5.553,14.916 4.134,4.486 9.272,6.73 15.371,6.73 5.255,0 9.84,-1.759 13.783,-5.275 4.75,-4.183 7.125,-9.641 7.125,-16.371 0,-5.758 -1.599,-10.638 -4.808,-14.641 -3.826,-4.79 -9.192,-7.183 -16.1,-7.183 z m 91.746,0 c -5.988,0 -10.914,1.94 -14.819,5.82 -4.314,4.245 -6.477,9.609 -6.477,16.096 0,6.61 1.923,11.792 5.744,15.552 4.017,4 9.596,6.002 16.758,6.002 6.647,0 12.205,-1.94 16.641,-5.822 l -2.964,-6.092 c -4.368,2.426 -8.56,3.637 -12.572,3.637 -2.842,0 -5.302,-0.908 -7.401,-2.728 -2.051,-1.88 -3.194,-4.214 -3.417,-7.001 h 28.852 v -4.183 c 0,-6.003 -1.6,-10.885 -4.809,-14.643 -3.693,-4.427 -8.884,-6.638 -15.536,-6.638 z m 92.543,0 c -5.978,0 -10.909,1.94 -14.803,5.82 -4.326,4.245 -6.472,9.609 -6.472,16.096 0,6.61 1.907,11.792 5.733,15.552 4,4 9.585,6.002 16.753,6.002 6.658,0 12.205,-1.94 16.652,-5.822 l -2.954,-6.092 c -4.389,2.426 -8.587,3.637 -12.588,3.637 -2.837,0 -5.308,-0.908 -7.406,-2.728 -2.04,-1.88 -3.183,-4.214 -3.427,-7.001 h 28.878 v -4.183 c 0,-6.003 -1.605,-10.885 -4.814,-14.643 -3.709,-4.427 -8.879,-6.638 -15.552,-6.638 z m 45.163,0 c -1.838,0 -3.672,0.485 -5.462,1.455 -1.727,0.908 -2.901,2 -3.512,3.272 l -1.11,-3.635 h -9.9 v 41.286 h 11.477 V 80.03 c 0.978,-2.12 2.524,-3.18 4.623,-3.18 2.28,0 4.442,1.15 6.466,3.454 L 495.81,75.03 C 493.1,69.876 488.966,67.3 483.414,67.3 Z m 30.121,0 c -4.883,0 -9.107,1.606 -12.683,4.82 -4.691,4.304 -7.024,10.427 -7.024,18.37 0,5.577 1.435,10.186 4.336,13.824 3.4,4.304 8.188,6.456 14.351,6.456 5.064,0 8.974,-2.032 11.759,-6.094 0,9.094 -3.342,13.642 -10,13.642 -4.697,0 -8.921,-1.213 -12.683,-3.638 l -2.954,5.82 c 4.856,4.365 10.637,6.549 17.295,6.549 6.413,0 11.354,-1.85 14.813,-5.549 3.502,-3.758 5.266,-9.125 5.255,-16.098 v -37.01 h -8.974 l -0.914,4.455 c 0,-0.604 -0.893,-1.515 -2.688,-2.728 -2.716,-1.879 -6.005,-2.82 -9.889,-2.82 z m -167.923,8.094 c 5.553,0 8.496,2.97 8.794,8.912 h -17.869 c 0.675,-5.942 3.704,-8.912 9.075,-8.912 z m 92.554,0 c 5.547,0 8.474,2.97 8.788,8.912 h -17.858 c 0.674,-5.942 3.703,-8.912 9.07,-8.912 z m -184.204,0.089 c 5.989,0 8.98,4.547 8.98,13.64 0,8.732 -2.991,13.097 -8.98,13.097 -5.982,0 -8.98,-4.365 -8.98,-13.096 0,-9.094 2.998,-13.641 8.98,-13.641 z m 45.748,0 c 2.04,0 3.794,0.67 5.282,2.002 1.53,1.272 2.518,2.908 2.943,4.909 v 11.55 c -0.318,2.243 -1.408,4.243 -3.315,6.002 -1.913,1.698 -3.985,2.547 -6.2,2.547 -5.989,0 -8.98,-4.516 -8.98,-13.55 0,-4.123 0.924,-7.396 2.778,-9.82 1.85,-2.426 4.347,-3.64 7.492,-3.64 z m 216.312,0 c 1.982,0 3.762,0.7 5.377,2.093 1.669,1.335 2.625,2.94 2.875,4.818 v 10.46 c 0,2.607 -0.935,4.878 -2.785,6.82 -1.854,1.878 -4.043,2.819 -6.572,2.819 -6.047,0 -9.075,-4.516 -9.075,-13.55 0,-4.123 0.924,-7.396 2.779,-9.82 1.849,-2.426 4.325,-3.64 7.401,-3.64 z M 391.7,75.578 c 2.832,0 5.048,1.211 6.663,3.637 1.594,2.425 2.407,5.728 2.407,9.912 0,4.244 -0.866,7.58 -2.598,10.006 -1.727,2.424 -4.07,3.637 -7.019,3.637 -2.295,0 -4.31,-0.76 -6.03,-2.274 -1.68,-1.518 -2.604,-3.396 -2.769,-5.637 v -9.916 c 0,-2.606 0.893,-4.818 2.673,-6.637 1.854,-1.817 4.075,-2.728 6.673,-2.728 z"
     style="line-height:1.25;-inkscape-font-specification:'Tajawal Bold';font-variant-ligatures:normal;font-variant-caps:normal;font-variant-numeric:normal;font-variant-east-asian:normal"
     font-weight="700"
     font-size="17.899px"
     font-family="Tajawal"
     letter-spacing="-0.285"
     word-spacing="0"
     fill="#2185d0"
     id="path16" />
  <g
     paint-order="stroke markers fill"
     id="g22">
    <path
       style="font-variation-settings:normal"
       d="M42519.285-7078.79a.76.568 0 00-.738.675l33.586 125.888a87.182 87.182 0 0039.381-33.763l-71.565-92.52a.76.568 0 00-.664-.28z"
       transform="matrix(.75692 0 0 .74393 -32088.397 5317.32)"
       opacity=".5"
       fill="url(#b)"
       id="path18" />
    <path
       d="M93.742 20.95A65.99 64.857 0 0028 85.807a65.99 64.857 0 0010.076 34.447l55.019-69.909a1.03.756 0 011.785 0l55.022 69.912a65.99 64.857 0 0010.078-34.45A65.99 64.857 0 0093.99 20.95a65.99 64.857 0 00-.248 0z"
       fill="#2185d0"
       id="path20" />
  </g>
  <text
     xml:space="preserve"
     id="text29"
     style="font-size:24px;line-height:1.25;font-family:sans-serif;-inkscape-font-specification:'sans-serif, Normal';white-space:pre;shape-inside:url(#rect31);"
     transform="matrix(1.1146815,0,0,1.3071735,-22.646149,-42.122795)"><tspan
       x="190.59766"
       y="155.36468"><tspan
         style="font-size:24px">NOT Github</tspan></tspan></text>
</svg>
